<svg width="24" height="23" viewBox="0 0 24 23" fill="none" xmlns="http://www.w3.org/2000/svg">
<path d="M20.6441 9.58337C20.6441 16.2917 11.995 22.0417 11.995 22.0417C11.995 22.0417 3.34595 16.2917 3.34595 9.58337C3.34595 7.29588 4.25718 5.10208 5.8792 3.48458C7.50121 1.86708 9.70113 0.958374 11.995 0.958374C14.2889 0.958374 16.4888 1.86708 18.1108 3.48458C19.7328 5.10208 20.6441 7.29588 20.6441 9.58337Z" stroke="white" stroke-width="1.3" stroke-linecap="round" stroke-linejoin="round"/>
<path d="M11.9951 12.4584C13.5873 12.4584 14.8781 11.1712 14.8781 9.58337C14.8781 7.99556 13.5873 6.70837 11.9951 6.70837C10.4028 6.70837 9.11206 7.99556 9.11206 9.58337C9.11206 11.1712 10.4028 12.4584 11.9951 12.4584Z" stroke="white" stroke-width="1.3" stroke-linecap="round" stroke-linejoin="round"/>
</svg>
