<svg width="24" height="23" viewBox="0 0 24 23" fill="none" xmlns="http://www.w3.org/2000/svg">
<path d="M6.85424 3.5C6.85424 5.15554 5.50804 6.5 3.84448 6.5C2.18092 6.5 0.834717 5.15554 0.834717 3.5C0.834717 1.84446 2.18092 0.5 3.84448 0.5C5.50804 0.5 6.85424 1.84446 6.85424 3.5Z" stroke="white"/>
<path d="M6.85424 11.5C6.85424 13.1555 5.50804 14.5 3.84448 14.5C2.18092 14.5 0.834717 13.1555 0.834717 11.5C0.834717 9.84446 2.18092 8.5 3.84448 8.5C5.50804 8.5 6.85424 9.84446 6.85424 11.5Z" stroke="white"/>
<path d="M6.85424 19.5C6.85424 21.1555 5.50804 22.5 3.84448 22.5C2.18092 22.5 0.834717 21.1555 0.834717 19.5C0.834717 17.8445 2.18092 16.5 3.84448 16.5C5.50804 16.5 6.85424 17.8445 6.85424 19.5Z" stroke="white"/>
<path d="M14.8765 3.5C14.8765 5.15554 13.5303 6.5 11.8667 6.5C10.2031 6.5 8.85693 5.15554 8.85693 3.5C8.85693 1.84446 10.2031 0.5 11.8667 0.5C13.5303 0.5 14.8765 1.84446 14.8765 3.5Z" stroke="white"/>
<path d="M14.8765 11.5C14.8765 13.1555 13.5303 14.5 11.8667 14.5C10.2031 14.5 8.85693 13.1555 8.85693 11.5C8.85693 9.84446 10.2031 8.5 11.8667 8.5C13.5303 8.5 14.8765 9.84446 14.8765 11.5Z" stroke="white"/>
<path d="M14.8765 19.5C14.8765 21.1555 13.5303 22.5 11.8667 22.5C10.2031 22.5 8.85693 21.1555 8.85693 19.5C8.85693 17.8445 10.2031 16.5 11.8667 16.5C13.5303 16.5 14.8765 17.8445 14.8765 19.5Z" stroke="white"/>
<path d="M22.8987 3.5C22.8987 5.15554 21.5525 6.5 19.8889 6.5C18.2254 6.5 16.8792 5.15554 16.8792 3.5C16.8792 1.84446 18.2254 0.5 19.8889 0.5C21.5525 0.5 22.8987 1.84446 22.8987 3.5Z" stroke="white"/>
<path d="M22.8987 11.5C22.8987 13.1555 21.5525 14.5 19.8889 14.5C18.2254 14.5 16.8792 13.1555 16.8792 11.5C16.8792 9.84446 18.2254 8.5 19.8889 8.5C21.5525 8.5 22.8987 9.84446 22.8987 11.5Z" stroke="white"/>
<path d="M22.8987 19.5C22.8987 21.1555 21.5525 22.5 19.8889 22.5C18.2254 22.5 16.8792 21.1555 16.8792 19.5C16.8792 17.8445 18.2254 16.5 19.8889 16.5C21.5525 16.5 22.8987 17.8445 22.8987 19.5Z" stroke="white"/>
</svg>
