<svg width="19" height="23" viewBox="0 0 19 23" fill="none" xmlns="http://www.w3.org/2000/svg">
<path d="M10.1149 0C10.4421 0.076412 10.7811 0.129313 11.1023 0.235114C12.9522 0.864043 14.124 2.39816 14.2489 4.33197C14.2489 4.36724 14.2608 4.4025 14.2668 4.47304C14.3501 4.47304 14.4333 4.47304 14.5107 4.47304C15.2958 4.47304 16.0869 4.47304 16.8721 4.47304C17.3599 4.47304 17.5978 4.68464 17.6454 5.16075C17.806 6.9241 17.9606 8.69333 18.1153 10.4567C18.3056 12.5551 18.496 14.6593 18.6863 16.7577C18.7815 17.7864 18.9064 18.815 18.954 19.8436C19.0016 20.9016 18.496 21.7128 17.6454 22.3182C16.9732 22.7943 16.2059 22.9882 15.3791 22.9882C12.405 22.9824 9.42493 22.9882 6.45081 22.9882C5.51694 22.9882 4.58902 23.0176 3.65515 22.9765C2.4774 22.9295 1.50783 22.4475 0.823788 21.4718C0.353878 20.8017 0.306292 20.0493 0.389568 19.2617C0.562066 17.6335 0.692927 15.9995 0.835685 14.3654C0.978442 12.7608 1.12715 11.162 1.26991 9.55737C1.40077 8.13494 1.52568 6.7125 1.65059 5.29006C1.65654 5.2254 1.65654 5.15487 1.66844 5.09021C1.72792 4.67876 1.9599 4.47304 2.38817 4.46716C3.18524 4.46128 3.97635 4.46716 4.77341 4.46716C4.86264 4.46716 4.95186 4.46716 5.04703 4.46716C5.08272 3.7677 5.21953 3.12113 5.53479 2.52159C6.28426 1.12855 7.44417 0.305648 9.0145 0.0470227C9.07993 0.0352671 9.14536 0.0176335 9.21079 0C9.5082 0 9.81156 0 10.1149 0ZM5.06488 5.76029C4.33324 5.76029 3.63135 5.76029 2.91756 5.76029C2.91162 5.80731 2.89972 5.84258 2.89972 5.88372C2.72127 7.89394 2.53688 9.91004 2.35843 11.9203C2.12645 14.5418 1.89447 17.1692 1.65654 19.7907C1.6149 20.2727 1.7755 20.6724 2.09671 21.0192C2.59636 21.5482 3.23877 21.7304 3.94661 21.7304C7.75348 21.7363 11.5663 21.7363 15.3732 21.7304C15.8014 21.7304 16.2119 21.6599 16.6044 21.4718C17.229 21.172 17.7762 20.5313 17.6692 19.7084C17.6037 19.2147 17.574 18.7092 17.5324 18.2096C17.3777 16.4462 17.2171 14.677 17.0625 12.9136C16.884 10.9269 16.7056 8.93432 16.5271 6.94761C16.4914 6.55379 16.4498 6.15998 16.4141 5.77204C15.6884 5.77204 14.9806 5.77204 14.2608 5.77204C14.2608 5.85433 14.2608 5.92487 14.2608 5.98952C14.2608 6.55967 14.2668 7.12982 14.2549 7.6941C14.2489 8.05264 13.9634 8.31715 13.6125 8.31127C13.2734 8.30539 12.9998 8.04677 12.982 7.69997C12.976 7.58242 12.982 7.45898 12.982 7.34143C12.982 6.8183 12.982 6.29517 12.982 5.77204C10.7573 5.77204 8.56243 5.77204 6.34969 5.77204C6.34969 5.83082 6.34969 5.87784 6.34969 5.91899C6.34969 6.50089 6.35564 7.08868 6.34969 7.67059C6.34375 8.04677 6.06418 8.31715 5.70728 8.31127C5.35634 8.31127 5.08867 8.04089 5.07677 7.68234C5.07082 7.57066 5.07677 7.45898 5.07677 7.3473C5.06488 6.8183 5.06488 6.29517 5.06488 5.76029ZM12.976 4.46128C12.8927 3.23281 12.3515 2.29236 11.2808 1.6987C10.1209 1.05801 8.94907 1.10503 7.83675 1.82213C6.89098 2.43343 6.40918 3.33274 6.34969 4.46128C8.56838 4.46128 10.7633 4.46128 12.976 4.46128Z" fill="white"/>
</svg>
